<?xml version="1.0" encoding="utf-8"?>
<!-- Generator: Adobe Illustrator 25.0.0, SVG Export Plug-In . SVG Version: 6.00 Build 0)  -->
<svg version="1.1" id="Layer_1" xmlns="http://www.w3.org/2000/svg" xmlns:xlink="http://www.w3.org/1999/xlink" x="0px" y="0px"
	 viewBox="0 0 3437.3 2025" style="enable-background:new 0 0 3437.3 2025;" xml:space="preserve">
<style type="text/css">
	.st0{fill:#C4D6E9;}
	.st1{fill:#434C79;}
	.st2{fill:#49649D;}
	.st3{fill:#FFFFFF;}
	.st4{fill:#66E7D6;}
	.st5{fill:#24235C;}
	.st6{fill:#E59DAD;}
	.st7{clip-path:url(#XMLID_2_);fill:#D4869A;}
	.st8{fill:#D4869A;}
	.st9{fill:#6ADCC5;}
	.st10{fill:#DEE8F3;}
	.st11{fill:#48769E;}
	.st12{fill:#EFF3F9;}
	.st13{fill:#6B96BF;}
	.st14{fill:#446B93;}
	.st15{fill:#96B7DA;}
	.st16{fill:#D6E2F0;}
	.st17{fill:#F7FCFE;}
	.st18{fill:#D4ADB5;}
	.st19{clip-path:url(#XMLID_3_);fill:#66E7D6;}
	.st20{clip-path:url(#XMLID_3_);fill:#24235C;}
	.st21{fill:none;stroke:#78C2F5;stroke-width:2.2465;stroke-linecap:round;stroke-miterlimit:10;}
	.st22{clip-path:url(#XMLID_4_);fill:#D4869A;}
	.st23{fill:#BED6BB;}
	.st24{fill:#7F9F7B;}
	.st25{opacity:0.18;clip-path:url(#XMLID_5_);fill:#96B7DA;}
</style>
<path class="st0" d="M2656.8,1079.7c-159.1-146.8-337.5-273.2-525.1-379.8c-418.2-237.5-1057-514.8-1542-302.7
	c-143.2,62.6-242.9,191.7-271.9,345c-39.4,208,24,422.8,131.7,600.7c54.4,89.8,121,170.4,196.5,243.3
	c49.9,48.2,190.3,208.2,260.1,208.2c349.3,0,698.7,0,1048,0c257,0,513.9,0,770.9,0c96.8,0,193.6,0,290.3,0
	c45.3,0,124.2,15.7,167.2,0c6.7-2.4,21.7-1.1,28.9-1.9c-57,6.6-166.4-246.2-191.2-284.7C2918.1,1349.6,2794.7,1207,2656.8,1079.7z"
	/>
<g>
	
		<ellipse transform="matrix(0.7754 -0.6314 0.6314 0.7754 -54.1324 2044.6791)" class="st1" cx="2847.5" cy="1098.4" rx="412.8" ry="273.7"/>
	<g>
		
			<ellipse transform="matrix(0.7754 -0.6314 0.6314 0.7754 -42.5718 2025.6393)" class="st2" cx="2826.5" cy="1072.7" rx="412.8" ry="273.7"/>
		
			<ellipse transform="matrix(0.7754 -0.6314 0.6314 0.7754 -42.5718 2025.6392)" class="st3" cx="2826.5" cy="1072.7" rx="281.6" ry="186.7"/>
		
			<ellipse transform="matrix(0.7754 -0.6314 0.6314 0.7754 -42.572 2025.6385)" class="st4" cx="2826.5" cy="1072.7" rx="153" ry="101.4"/>
	</g>
	<g>
		<g id="XMLID_54_">
			<line class="st3" x1="2620" y1="819" x2="2798" y2="1050.5"/>
			<path class="st5" d="M2798.3,1055.1c-1.5,0.1-3-0.5-4-1.8l-178-231.5c-1.5-2-1.2-4.9,0.8-6.5c2-1.5,4.9-1.2,6.5,0.8l178,231.5
				c1.5,2,1.2,4.9-0.8,6.5C2800.1,1054.7,2799.2,1055.1,2798.3,1055.1z"/>
		</g>
		<g>
			<polygon class="st5" points="2580.3,767.3 2548.9,763.2 2595.7,824.1 2627.6,828.8 2599.8,792.7 2627.6,828.8 2631.2,796.8 
				2584.4,736 			"/>
		</g>
	</g>
	<g>
		<g id="XMLID_53_">
			<line class="st3" x1="2808.2" y1="774" x2="2821.2" y2="1065.8"/>
			<path class="st5" d="M2821.2,1070.4c-2.4,0-4.5-1.9-4.6-4.4l-13.1-291.7c-0.1-2.5,1.9-4.7,4.4-4.8c2.5-0.1,4.7,1.9,4.8,4.4
				l13.1,291.7c0.1,2.5-1.9,4.7-4.4,4.8C2821.4,1070.4,2821.3,1070.4,2821.2,1070.4z"/>
		</g>
		<g>
			<polygon class="st5" points="2805.3,708.9 2781.9,687.6 2785.4,764.2 2808.7,786.4 2806.7,740.9 2808.7,786.4 2830,762.2 
				2826.6,685.6 			"/>
		</g>
	</g>
</g>
<g>
	<g>
		<g>
			<path class="st2" d="M1354.1,1405.2c1.5,2.2,0.4,5.9,0,8.8c-2,14.8-4.1,29.5-6.1,44.3c-3.2,22.7-6.3,45.5-9.5,68.2
				c-3.7,26.4-7.3,52.8-11,79.1c-3.6,25.7-7.1,51.3-10.7,77c-2.9,20.6-5.7,41.1-8.6,61.7c-1.5,11.1-3.1,22.2-4.6,33.4
				c-0.1,0.9-0.2,1.7-0.4,2.6h-18.9l-6.8-210.5c0,0-21.9-86-23.6-137.9c-0.4-13.3,9.4-21.1,21.3-23.6c24.2-5.2,50.9-9.3,75.5-4.9
				C1352.5,1403.6,1353.5,1404.3,1354.1,1405.2z"/>
			<path class="st2" d="M1375,1409.6c4.5,1.5,7.8,5.3,8.8,9.9c6.5,31,28.1,150.2,25.8,177.4c-2.6,31.1-30.8,183.3-30.8,183.3
				l-17.2-0.3l-2.6-179.6c0,0-61.5-129.2-57.9-174.2C1304.2,1389.5,1355.8,1403.2,1375,1409.6z"/>
			<polygon class="st1" points="1335.6,1547.1 1355.4,1460.7 1353,1587.2 			"/>
		</g>
		<g>
			<path class="st5" d="M1283.6,1771.6h20.7l-1.3,14.8c0,0,19,0.9,30.4,13.1h-48.7L1283.6,1771.6z"/>
			<path class="st5" d="M1361.1,1771.6h20.7l-1.3,14.8c0,0,19,0.9,30.4,13.1h-48.7L1361.1,1771.6z"/>
		</g>
	</g>
	<g>
		<path class="st4" d="M1391,1411.7l-23.2-88.3c0,0,22-31.8,21.5-47.1c-0.5-15.3-49.5-50.2-49.5-50.2l-25.6-2.9
			c0,0-53,14.3-66.5,50.8c-0.1,0.4-0.3,0.8-0.4,1.3l-14.2,31.1c-17.2,10.5-13.4,50.7,0.4,51.4h11.9c0.9,21.8-3.4,38.2-2.3,54.6l0,0
			c0.3,4.4,0.4,8.4,1.4,12.6c1.6,7,9.1,10.9,15.7,8.3c17.3-6.8,57.2-18.1,124.5-13.9C1388.9,1419.7,1392.1,1415.8,1391,1411.7z"/>
		<path class="st6" d="M1249.7,1357.9c0,0,12.2-24.9,26.4-25c14.2-0.1,47.8,9.7,47.8,9.7l-3.1,15.3H1249.7z"/>
		<g>
			<path class="st5" d="M1352.1,1135.8c5.3,1.9,10.4,4.7,14.3,8.8c10.9,11.1,11.3,30,2.9,43.1s-23.8,20.6-39.3,22
				c-7.8,0.7-16.1-0.2-22.3-4.9c-3.7-2.9-6.3-6.9-8.3-11.1c-3.1-6.7-4.8-14-5.1-21.3c-0.1-3.7,0.1-7.4,0.7-11
				c0.6-3.7,1.7-7.1,2.8-10.6c0.3-1.1,0.5-2.2,1.3-3.1c1.1-1.2,2.4-2.3,3.6-3.3c2.6-2.1,5.4-3.9,8.4-5.4c5.9-3,12.3-4.9,18.9-5.6
				c6.6-0.7,13.3-0.1,19.6,1.7C1350.5,1135.3,1351.3,1135.5,1352.1,1135.8z"/>
			<g>
				<g>
					<defs>
						<path id="XMLID_52_" d="M1363.2,1187.6c0,0-17.8,45-36.2,29.5c-18.4-15.6-13.3-46.5,3.9-55.6
							C1348.2,1152.4,1376.5,1159,1363.2,1187.6z"/>
					</defs>
					<use xlink:href="#XMLID_52_"  style="overflow:visible;fill:#E59DAD;"/>
					<clipPath id="XMLID_2_">
						<use xlink:href="#XMLID_52_"  style="overflow:visible;"/>
					</clipPath>
					<path class="st7" d="M1346.2,1193c-1.7-4.5-2.1-9.4-1.7-14.1c-5.3,3.3-11.5,4.8-17.7,4.3c6-6.4,12.1-12.9,19.4-17.9
						c1.5-1,3.2-2.1,5-2.2c2.1-0.2,4.1,0.8,5.6,2.2c1.5,1.4,2.7,3.2,3.8,4.9c1.6,2.6,3.3,5.2,4.9,7.8c1.4,2.2,2.8,4.4,3.5,7
						c1,3.8,0,8.1-2.6,11c-2.4,2.9-6,4.4-9.3,6.2c-0.7,0.4-1.4,1-2.2,1.1c-0.8,0.1-1.5-0.5-2.1-1c-1.4-1.1-2.7-2.5-3.8-4
						C1347.9,1196.7,1346.9,1194.9,1346.2,1193z"/>
				</g>
				<path class="st6" d="M1315.4,1188.5c0,0-0.3,16.6-4.3,40.1c-0.6,3.7,1.1,6.8,3.7,9.6c3.6,4,13.5,9.2,21,9.1
					c11.8-0.2,0.8-51.3,0.8-51.3L1315.4,1188.5z"/>
				<path class="st8" d="M1340.4,1219.2c0,0-4.4-0.4-11.6-8.3c0,0,1.4,12.9,12.4,16.7C1341.2,1227.6,1340.4,1219.6,1340.4,1219.2z"
					/>
			</g>
			<path class="st5" d="M1358.8,1190.1c0.7,0.3,1.5,0.6,2.2,0.4c0.7-0.1,1.2-0.5,1.8-0.9c4-3.1,7.2-7.3,9.1-12.1
				c0.8-2,1.4-4,1.4-6.1c0.1-6.3-4.4-11.7-9.3-15.7c-3.1-2.5-6.6-4.1-10.3-1.7c-3,1.9-5.1,5.7-6.2,9c-0.9,2.6-0.6,5.1,0,7.8
				c0.8,3.8,1.5,7.7,3.2,11.1C1352.3,1185.4,1355.1,1188.5,1358.8,1190.1z"/>
			<path class="st5" d="M1308.1,1186.6c-2.7-0.2-5.6-0.8-7.3-2.8c-1.3-1.6-1.7-3.7-1.6-5.8c0.2-8.3,5.9-15.5,12.3-20.6
				c4.7-3.7,9.9-6.8,15.5-8.9c6.2-2.3,13.1-3.4,19.3-1.2c4.6,1.6,9.3,5.9,10.2,10.9c0.4,2.1-0.6,3.6-2.1,5c-1.8,1.8-3.6,3.5-5.4,5.3
				c-3.5,3.6-7.4,6.8-11.5,9.6c-4.1,2.7-8.5,4.9-13.2,6.5c-4.6,1.5-9.5,2.3-14.4,2.2C1309.4,1186.6,1308.8,1186.6,1308.1,1186.6z"/>
			<path class="st5" d="M1292.4,1145.8c-4.8-0.4-9.6,1-13.8,3.3c-11.4,6.3-17.7,19.4-18.9,32.4s1.9,25.9,5.6,38.4
				c3.7,12.5,7.9,24.9,9,37.9c9.2-5,15.8-14.1,19-24c3.3-9.9,3.5-20.7,1.9-31c-1.2-8.3-3.5-16.5-2.6-24.9c0.4-3.8,1.6-7.7,4.1-10.6
				c2.9-3.5,7.4-5.8,8.4-10.6c0.8-3.6-1.7-6.4-4.6-8.2C1298.2,1147,1295.3,1146,1292.4,1145.8z"/>
			<path class="st4" d="M1294.4,1172.3c0,0,1.2-19.8,4.8-24.7C1299.2,1147.6,1288.5,1156,1294.4,1172.3z"/>
		</g>
		<path class="st9" d="M1276.1,1332.9l15.8-35l-5.1,36C1286.8,1333.9,1280.8,1332.9,1276.1,1332.9z"/>
		<path class="st6" d="M1326.1,1181.7c0,3.8-3,6.8-6.8,6.8c-3.8,0-6.8-3-6.8-6.8s3-6.8,6.8-6.8
			C1323.1,1174.9,1326.1,1178,1326.1,1181.7z"/>
	</g>
</g>
<g>
	<g>
		<polygon class="st1" points="1514.3,1370.5 1501.5,1370.5 1630.6,1797 1643.4,1797 		"/>
		<polygon class="st1" points="1599.1,1370.5 1586.3,1370.5 1715.5,1797 1728.2,1797 		"/>
	</g>
	<path class="st1" d="M1744.7,1371.6H619.6c-3.8,0-6.8-3.1-6.8-6.8v0c0-3.8,3.1-6.8,6.8-6.8h1125.1c3.8,0,6.8,3.1,6.8,6.8v0
		C1751.5,1368.5,1748.5,1371.6,1744.7,1371.6z"/>
	<g>
		<polygon class="st1" points="559.2,1798.1 546.4,1798.1 675.6,1371.6 688.4,1371.6 		"/>
		<polygon class="st1" points="644.1,1798.1 631.3,1798.1 760.4,1371.6 773.2,1371.6 		"/>
	</g>
</g>
<g>
	<g>
		<g>
			<g>
				<g>
					<rect x="2785.6" y="1262.8" class="st10" width="86.5" height="86.5"/>
					<rect x="2872.1" y="1262.8" class="st11" width="36.8" height="86.5"/>
					<rect x="2826.8" y="1262.8" class="st12" width="10.2" height="37.7"/>
				</g>
				<g>
					<g>
						<rect x="2857.9" y="1573.7" class="st10" width="224.4" height="224.4"/>
						<rect x="3082.3" y="1573.7" class="st11" width="112.7" height="224.4"/>
						<rect x="2964.8" y="1573.7" class="st12" width="26.4" height="224.4"/>
					</g>
					<polygon class="st13" points="2857.9,1573.7 2885.9,1573.4 2914,1573.1 2970.1,1573 3026.2,1573.1 3054.2,1573.4 
						3082.3,1573.7 3054.2,1574.1 3026.2,1574.3 2970.1,1574.5 2914,1574.3 2885.9,1574.1 					"/>
				</g>
				<g>
					<g>
						<rect x="2665.4" y="1349.3" class="st10" width="224.4" height="224.4"/>
						<rect x="2889.8" y="1349.3" class="st11" width="95.6" height="224.4"/>
						<rect x="2772.4" y="1349.3" class="st14" width="26.4" height="224.4"/>
					</g>
					<polygon class="st5" points="2665.4,1349.3 2693.5,1349 2721.5,1348.8 2777.6,1348.6 2833.7,1348.7 2861.7,1349 2889.8,1349.3 
						2861.7,1349.7 2833.7,1349.9 2777.6,1350.1 2721.5,1349.9 2693.5,1349.7 					"/>
				</g>
				<g>
					<g>
						<rect x="2596" y="1438.6" class="st10" width="135.1" height="135.1"/>
						<rect x="2731.2" y="1438.6" class="st11" width="57.5" height="135.1"/>
						<rect x="2660.5" y="1438.6" class="st12" width="15.9" height="58.9"/>
					</g>
					<polygon class="st5" points="2596,1438.6 2612.9,1438.4 2629.8,1438.3 2663.6,1438.1 2697.4,1438.3 2714.3,1438.4 
						2731.2,1438.6 2714.3,1438.8 2697.4,1439 2663.6,1439.1 2629.8,1439 2612.9,1438.8 					"/>
				</g>
				<g>
					<g>
						<rect x="2596" y="1573.7" class="st10" width="224.4" height="224.4"/>
						<rect x="2820.4" y="1573.7" class="st11" width="95.6" height="224.4"/>
						<rect x="2703" y="1573.7" class="st12" width="26.4" height="224.4"/>
					</g>
					<polygon class="st5" points="2596,1573.7 2624.1,1573.4 2652.1,1573.1 2708.2,1573 2764.3,1573.1 2792.4,1573.4 2820.4,1573.7 
						2792.4,1574.1 2764.3,1574.3 2708.2,1574.5 2652.1,1574.3 2624.1,1574.1 					"/>
				</g>
			</g>
			<g>
				<g>
					<rect x="2916" y="1461.5" class="st10" width="248.8" height="112.2"/>
					<rect x="3107.4" y="1461.5" class="st11" width="57.4" height="112.2"/>
				</g>
				<rect x="3001.9" y="1461.5" class="st12" width="24.1" height="52"/>
			</g>
			<path class="st5" d="M2916,1573.7c15.9-0.6,31.9-1,47.8-1.2c15.9-0.3,31.9-0.3,47.8-0.4c15.9,0,31.9,0.1,47.8,0.4
				c15.9,0.2,31.9,0.6,47.8,1.3c-15.9,0.6-31.9,1-47.8,1.3c-15.9,0.3-31.9,0.3-47.8,0.4c-15.9,0-31.9-0.1-47.8-0.4
				C2947.9,1574.8,2931.9,1574.4,2916,1573.7z"/>
		</g>
		<g>
			<rect x="2954.5" y="1364.1" class="st10" width="97.5" height="97.5"/>
			<rect x="3052" y="1364.1" class="st11" width="41.5" height="97.5"/>
			<rect x="3001" y="1364.1" class="st12" width="11.5" height="42.5"/>
		</g>
		<path class="st5" d="M2954.5,1461.5c4.3-0.2,8.6-0.3,12.9-0.4l12.9-0.2c8.6-0.1,17.2-0.1,25.8-0.2c8.6,0.1,17.2,0.1,25.8,0.2
			l12.9,0.2c4.3,0.1,8.6,0.2,12.9,0.4c-4.3,0.2-8.6,0.3-12.9,0.4l-12.9,0.2c-8.6,0.1-17.2,0.1-25.8,0.2c-8.6-0.1-17.2-0.1-25.8-0.2
			l-12.9-0.2C2963.1,1461.8,2958.8,1461.7,2954.5,1461.5z"/>
	</g>
</g>
<g>
	<g>
		<g>
			<path class="st15" d="M2404,1798.9h-593.5c-30.6,0-55.3-24.8-55.3-55.3V527.3c0-30.6,24.8-55.3,55.3-55.3H2404
				c30.6,0,55.3,24.8,55.3,55.3v1216.3C2459.3,1774.1,2434.5,1798.9,2404,1798.9z"/>
		</g>
		<g>
			<rect x="2192.8" y="890.3" class="st2" width="80.3" height="822.9"/>
			<rect x="2305.6" y="1077.9" class="st3" width="80.3" height="635.3"/>
			<rect x="1828.5" y="1298.5" class="st3" width="80.3" height="414.7"/>
			<rect x="1945.9" y="1036.5" class="st3" width="80.3" height="676.7"/>
			<rect x="2073.9" y="974.7" class="st3" width="80.3" height="738.5"/>
		</g>
		<path class="st16" d="M2160.3,524.9h-106.2c-3.6,0-6.5-2.9-6.5-6.5l0,0c0-3.6,2.9-6.5,6.5-6.5h106.2c3.6,0,6.5,2.9,6.5,6.5l0,0
			C2166.8,522,2163.9,524.9,2160.3,524.9z"/>
	</g>
	<g>
		<g>
			<g>
				<polygon class="st4" points="1786.5,662.9 1707.1,662.9 1755.4,556.3 1825.7,556.3 				"/>
				<polygon class="st2" points="1865.9,662.9 1786.5,662.9 1825.7,556.3 1896.1,556.3 				"/>
			</g>
			<g>
				<polygon class="st4" points="1945.2,663.1 1865.8,663.1 1896.1,556.4 1966.4,556.4 				"/>
				<polygon class="st2" points="2024.6,663.1 1945.2,663.1 1966.4,556.4 2036.8,556.4 				"/>
			</g>
			<g>
				<polygon class="st4" points="2104,663.2 2024.6,663.2 2036.8,556.5 2107.2,556.5 				"/>
				<polygon class="st2" points="2183.4,663.2 2104,663.2 2107.2,556.5 2177.5,556.5 				"/>
			</g>
			<g>
				<polygon class="st4" points="2262.9,663.3 2183.4,663.3 2177.5,556.6 2247.9,556.6 				"/>
				<polygon class="st2" points="2342.3,663.3 2262.9,663.3 2247.9,556.6 2318.3,556.6 				"/>
			</g>
			<g>
				<polygon class="st4" points="2421.7,663.4 2342.3,663.4 2318.4,556.7 2388.8,556.7 				"/>
				<polygon class="st2" points="2501.2,663.4 2421.7,663.4 2388.8,556.7 2459.1,556.7 				"/>
			</g>
		</g>
		<g>
			<g>
				<path class="st9" d="M1749.4,722.5h-4.7c-20.7,0-37.4-16.7-37.4-37.4v-22.2h79.5v22.2C1786.8,705.8,1770,722.5,1749.4,722.5z"/>
				<path class="st1" d="M1828.9,722.5h-4.7c-20.7,0-37.4-16.7-37.4-37.4v-22.2h79.5v22.2C1866.3,705.8,1849.5,722.5,1828.9,722.5z"
					/>
			</g>
			<g>
				<path class="st9" d="M1908.1,722.5h-4.7c-20.7,0-37.4-16.7-37.4-37.4v-22.2h79.5v22.2C1945.5,705.8,1928.8,722.5,1908.1,722.5z"
					/>
				<path class="st1" d="M1987.6,722.5h-4.7c-20.7,0-37.4-16.7-37.4-37.4v-22.2h79.5v22.2C2025,705.8,2008.2,722.5,1987.6,722.5z"/>
			</g>
			<g>
				<path class="st9" d="M2066.8,722.5h-4.7c-20.7,0-37.4-16.7-37.4-37.4v-22.2h79.5v22.2C2104.2,705.8,2087.5,722.5,2066.8,722.5z"
					/>
				<path class="st1" d="M2146.3,722.5h-4.7c-20.7,0-37.4-16.7-37.4-37.4v-22.2h79.5v22.2C2183.7,705.8,2167,722.5,2146.3,722.5z"/>
			</g>
			<g>
				<path class="st9" d="M2225.5,722.5h-4.7c-20.7,0-37.4-16.7-37.4-37.4v-22.2h79.5v22.2C2262.9,705.8,2246.2,722.5,2225.5,722.5z"
					/>
				<path class="st1" d="M2305,722.5h-4.7c-20.7,0-37.4-16.7-37.4-37.4v-22.2h79.5v22.2C2342.4,705.8,2325.7,722.5,2305,722.5z"/>
			</g>
			<g>
				<path class="st9" d="M2384.3,722.5h-4.7c-20.7,0-37.4-16.7-37.4-37.4v-22.2h79.5v22.2C2421.7,705.8,2404.9,722.5,2384.3,722.5z"
					/>
				<path class="st1" d="M2463.8,722.5h-4.7c-20.7,0-37.4-16.7-37.4-37.4v-22.2h79.5v22.2C2501.2,705.8,2484.4,722.5,2463.8,722.5z"
					/>
			</g>
		</g>
	</g>
</g>
<g>
	<g>
		<g>
			<g>
				<path class="st1" d="M1155.8,1550.6c0,0,32,141.6,32,203.2l-16,3.1c0,0-60.5-113-63.7-157.8L1155.8,1550.6z"/>
				<g>
					<g>
						<path class="st6" d="M1008,1323.4c0,0,26.4-10.8,37.8-24.1c11.4-13.3,36.5-111.1,36.5-111.1l17.5,5.6
							c0,0,3.4,124.8-33.1,150.2c-34.5,24-38,25.3-38,25.3L1008,1323.4z"/>
						<path class="st6" d="M1107,1168.7c-0.3-6.6-10.5-16-15.7-15.7c-2.8,0.2-5.5,11.5-7.3,21.8c-1.4-4.2-4.6-8.3-5.5-7.5
							c-1,0.9,2.6,16,3.6,19.9c-0.3,2.4-0.5,3.9-0.5,3.9v2.7h18.3C1099.9,1193.8,1107.3,1175.3,1107,1168.7z"/>
					</g>
					<path class="st4" d="M955.7,1346.3c0,0,79.1-37.1,83.5-42.5c4.4-5.3,19.7-38.8,19.7-38.8l36.8,5.2c0,0-2.4,55.6-26.9,76
						c-24.4,20.4-76.1,70-76.1,70L955.7,1346.3z"/>
					<path class="st2" d="M895.1,1534.8c0,0,232.3-22.5,257.3,8.5s-47,234.8-47,234.8h-17.2c0,0-16.1-142.8,2.5-170.7
						c0,0-117.7,53.8-156.2,27.9C895.9,1609.4,895.1,1534.8,895.1,1534.8z"/>
					<path class="st4" d="M896.7,1534.5c0,0-16.5,2-15.6-30s-18.9-127,57.3-156.8c67.6-26.5,66.5,110.9,66.5,110.9l21.4,74.2
						L896.7,1534.5z"/>
					<g>
						<g>
							<path class="st6" d="M976.5,1284.6c0,0,20.9,48.5-5.3,50.6s-46-25.8-39.7-46C937.9,1269,964.9,1252.2,976.5,1284.6z"/>
							<path class="st6" d="M930.4,1299.9c0,0,5.1,27,2.4,51.9c-0.5,4.1,2.3,7.1,5.5,9.7c4.6,3.7,16,7.8,24.1,6.5
								c12.7-2-7.2-55.5-7.2-55.5L930.4,1299.9z"/>
						</g>
						<path class="st8" d="M962.3,1334.7c0,0-4.8,0.3-13.8-7.2c0,0,3.5,13.7,16,16.1C964.4,1343.6,962.4,1335.2,962.3,1334.7z"/>
						<path class="st5" d="M948.4,1297.4c0,0,4.4-8.8,28.1-12.8c25.2-4.3,28.5-36.3,15.6-36.7c-13-0.4-42.5-4.5-60.6,10.2
							c-19.8,16.1-31.7,42.8,1.6,64.6c0,0,11-7.3,5.6-12.7C931.6,1302.9,939.4,1288.7,948.4,1297.4z"/>
					</g>
					<path class="st6" d="M955.9,1482.6l49,22.6l-5.7,27.7l-61.4-10.7c-2.1-0.4-3.9-1.9-4.6-4c-2.6-8.2-6.6-28.8,17.1-36.1
						C952.2,1481.6,954.1,1481.8,955.9,1482.6z"/>
					<path class="st4" d="M932.7,1351.8c0,0-80.9,18.5-69.6,101.9c8.4,61.5,42.4,55.6,42.4,55.6L932.7,1351.8z"/>
					<path class="st9" d="M1000.5,1408.8c0,0-7.7-29.8-14.4-40.7c0,0,20.9,22.6,20.7,34.7
						C1006.8,1402.7,1006.1,1403.5,1000.5,1408.8z"/>
					<g>
						<path class="st8" d="M931.3,1504.8c0,0,23.6,17.9,69.2,22l-1.3,6.1l-62.4-10.9c-1.5-0.3-2.7-1.3-3.1-2.7
							C932.7,1516,931,1509.8,931.3,1504.8z"/>
					</g>
					<g>
						<polygon class="st5" points="1136.5,1533.2 999.2,1533.2 1017.4,1443.2 1154.7,1443.2 						"/>
						<path class="st17" d="M1089.9,1492c-2.3,5.9-9,10.7-14.9,10.7c-5.9,0-8.8-4.8-6.4-10.7c2.3-5.9,9-10.7,14.9-10.7
							S1092.3,1486.1,1089.9,1492z"/>
					</g>
					<path class="st9" d="M936.9,1522.1c0,0-38.4-10.8-55.8-22.9c0,0-0.3,10.2,0.3,14.2C881.3,1513.4,874.7,1522.1,936.9,1522.1z"/>
				</g>
				<g>
					<path class="st18" d="M828.3,1426h-11.2l57,165c12.8,48.4,47.5,58.5,85.1,54.9l94.9-8.9c0,0,8.2-30-27.6-43.8
						c-35.9-13.8-111.8-15.3-111.8-15.3l-50.7-126.6C858.5,1436.1,844.3,1426,828.3,1426z"/>
					<g>
						<path class="st1" d="M834.2,1800c-0.4,0-0.7-0.1-1.1-0.2c-2.1-0.6-3.3-2.8-2.7-4.9l46.8-163c3.1-10.9,13.2-18.4,24.4-18.4
							h107.3c11.8,0,22,8,24.7,19.6l38.7,162.1c0.5,2.1-0.8,4.3-2.9,4.8c-2.1,0.5-4.3-0.8-4.8-2.9l-38.7-162.1
							c-1.9-7.9-8.9-13.4-17-13.4H901.5c-7.7,0-14.6,5.2-16.8,12.7l-46.8,163C837.5,1798.9,835.9,1800,834.2,1800z"/>
					</g>
				</g>
			</g>
			<path class="st5" d="M1168.1,1749.8l20.1-3.3l3.8,7.8c0,0,32.2-0.9,45.9,9.7l-60.6,10L1168.1,1749.8z"/>
			<path class="st5" d="M1087.3,1774.7h20.5l-1.8,8.2c0,0,28.7,4.5,40.4,17.2h-59.6L1087.3,1774.7z"/>
		</g>
		<path class="st9" d="M912.2,1459.9c0,0,16.3-36.1,0-71.5C912.2,1388.4,940.5,1430.5,912.2,1459.9z"/>
	</g>
	<g>
		<path class="st15" d="M1151.2,1184.9l-110.1-16c-4.8-0.7-8.1-5.1-7.4-9.9l8.3-57.4c0.7-4.8,5.1-8.1,9.9-7.4l110.1,16
			c4.8,0.7,8.1,5.1,7.4,9.9l-8.3,57.4C1160.4,1182.3,1156,1185.6,1151.2,1184.9z"/>
		<path class="st5" d="M1044.6,1096.7c4.9,3.3,9.7,6.8,14.6,10.2l14.4,10.4c4.8,3.5,9.6,7,14.3,10.5l7.1,5.3l3.6,2.7l1.8,1.3
			c0.4,0.3,1,0.5,1.5,0.6c0.5,0.1,1.1,0,1.6-0.2l2.1-0.8l4.2-1.5l8.3-3.1c5.6-2,11.1-4.1,16.7-6l16.8-5.9c5.6-1.9,11.2-3.8,16.9-5.7
			c-5.5,2.3-11,4.5-16.4,6.8l-16.5,6.5c-5.5,2.2-11.1,4.3-16.6,6.4l-8.3,3.1l-4.2,1.6l-2.1,0.8c-0.9,0.3-1.8,0.4-2.8,0.3
			c-0.9-0.1-1.8-0.5-2.6-1.1l-1.8-1.3l-3.5-2.7l-7.1-5.4c-4.7-3.6-9.4-7.2-14.1-10.9l-14-11
			C1053.8,1104.1,1049.2,1100.4,1044.6,1096.7z"/>
	</g>
	<path class="st6" d="M1081.1,1183c0,0-8.1-25.2-4.6-22.7c3.6,2.5,11.3,16.7,11.3,16.7L1081.1,1183z"/>
</g>
<g>
	<g>
		<path class="st2" d="M2411.6,1390.9c0,0-55.9,133.9-77.5,181.3c-21.7,47.4-54.4,206.5-54.4,206.5l7.4,5.1l9.4-2.3l103.2-169.1
			c0,0,143.7-158,105.4-222L2411.6,1390.9z"/>
		<path class="st2" d="M2502.7,1371.6l-92.5,4.8c0,0,10.1,157.9,39.1,218.2c22.6,47.1,172.1,158.7,172.1,158.7l10.5-14.8
			l-98.7-166.3C2533.1,1572.2,2549.2,1409.6,2502.7,1371.6"/>
		<g>
			<g>
				<path class="st6" d="M2435.7,1143.9c0,0-11.3,53.7,16,50.4c27.2-3.3,41.7-35.9,31-55.1S2440.9,1108.5,2435.7,1143.9z"/>
				<path class="st6" d="M2486.1,1149.9c0,0,0.5,33.9,10.7,59.8c0,0-17.7,15.6-31.1,16.2c-13.4,0.6-2.3-57.9-2.3-57.9L2486.1,1149.9
					z"/>
			</g>
			<path class="st5" d="M2437.6,1135.9c0,0,6,17.5,20.6,16.6c14.6-0.9,13.9,9.1,4.7,18.3s26.7,12.2,26.7,12.2s23.9-33.3,12.7-52.6
				c-11.1-19.4-53.6-26.3-61-35.8C2441.2,1094.7,2424.8,1111.9,2437.6,1135.9z"/>
			<path class="st8" d="M2459.9,1192.3l0.9-8c0,0-10.2,8.2-18.6,8.3C2442.2,1192.6,2446.9,1196.9,2459.9,1192.3z"/>
		</g>
		<path class="st4" d="M2401.1,1412.1c0,0-10.3-157,25.7-184.5c36-27.5,69.1-21.1,69.1-21.1s44.3,91.5,23,186
			C2511.8,1424.3,2416,1435.1,2401.1,1412.1z"/>
		<polygon class="st1" points="2438.5,1565.3 2418.4,1459.7 2399.7,1612.4 		"/>
	</g>
	<path class="st6" d="M2291.5,1126.6l-8.1-19.3c-1.6-3.9-4.6-7-8.5-8.9l-13.1-6.3l-3.6,9.9c-2.5,6.9,0,14.7,6.1,18.9l6.7,5.5l4,11.7
		L2291.5,1126.6z"/>
	<path class="st4" d="M2462.5,1209.4c0,0-76.6,18.8-89.9,19.1c-13.3,0.2-79.5-103-79.5-103l-20.6,14.5c0,0,39.3,131.5,71.9,141.6
		c32.6,10.1,133.5,0.6,133.5,0.6L2462.5,1209.4z"/>
	<path class="st4" d="M2438.3,1219.2c0,0-38.5,75.8-132.1,114l-88.5,33.7l8.3,24.6c0,0,98.2,13.4,177.6-31.5
		C2452.5,1332.3,2530.3,1275.7,2438.3,1219.2z"/>
	<path class="st8" d="M2261.3,1108.4c0,0,6.1,13.9,14,15.6c7.9,1.7,5.1-1.6,5.1-1.6L2261.3,1108.4z"/>
	<path class="st5" d="M2276.6,1128.4L2276.6,1128.4c-1.5,0.6-3.5-1.1-4.5-3.8l-67.4-177.5c-0.5-1.2-0.3-2.5,0.4-2.7l0,0
		c0.7-0.3,1.6,0.5,2.1,1.8l70.1,176.5C2278.4,1125.2,2278.1,1127.8,2276.6,1128.4z"/>
	<path class="st6" d="M2281.9,1111.7c0,0-16-9.4-20.1-6.2c-4.1,3.2,16.8,19.3,20.1,18.7C2285.2,1123.5,2281.9,1111.7,2281.9,1111.7z
		"/>
	<path class="st6" d="M2218.8,1370.2c0,0-28.1,7.7-33.2,12.2c-5.2,4.5,8.3,18.7,19.8,13s19.4-7.6,19.4-7.6L2218.8,1370.2z"/>
	<path class="st9" d="M2382.8,1286c0,0,41-56.6,74.8-75.1c0,0-69.7,40-95.4,73.9C2362.2,1284.7,2377.6,1286.6,2382.8,1286z"/>
	<path class="st9" d="M2399.7,1362.1c0,0,41.1-21.1,61.1-44.5c0,0-19.6,45.8-60.9,67L2399.7,1362.1z"/>
	<path class="st5" d="M2302.2,1772.2H2281l-2.6,8.7c0,0-33.3,4.5-45.5,17.8h64.1L2302.2,1772.2z"/>
	<path class="st5" d="M2627.7,1732.1l-15.3,14.7l4.1,8.1c0,0-20.9,26.4-20.5,44.4l46.2-44.4L2627.7,1732.1z"/>
</g>
<g>
	<polygon class="st5" points="1458.1,1357.9 1320.8,1357.9 1339,1267.9 1476.3,1267.9 	"/>
	
		<ellipse transform="matrix(0.7697 -0.6384 0.6384 0.7697 -517.9424 1197.5276)" class="st17" cx="1400.8" cy="1316.6" rx="13" ry="8.8"/>
</g>
<g>
	<path class="st3" d="M1165.9,1316.1C1165.9,1316.1,1165.9,1316.1,1165.9,1316.1l0-3.7c0-1.8-1.4-3.2-3.2-3.2h-28.5
		c-1.8,0-3.2,1.4-3.2,3.2v42.4c0,1.8,1.4,3.2,3.2,3.2h28.5c1.8,0,3.2-1.4,3.2-3.2v-3.7c0,0,0,0,0,0c9.7,0,17.6-7.9,17.6-17.6
		C1183.5,1324,1175.6,1316.1,1165.9,1316.1z M1165.9,1347.7C1165.9,1347.7,1165.9,1347.7,1165.9,1347.7l0-28c0,0,0,0,0,0
		c7.7,0,14,6.3,14,14C1179.9,1341.4,1173.7,1347.7,1165.9,1347.7z"/>
	<path class="st3" d="M825.8,1315.9C825.8,1315.9,825.8,1315.9,825.8,1315.9l0-3.7c0-1.8-1.4-3.2-3.2-3.2H794
		c-1.8,0-3.2,1.4-3.2,3.2v42.4c0,1.8,1.4,3.2,3.2,3.2h28.5c1.8,0,3.2-1.4,3.2-3.2v-3.7c0,0,0,0,0,0c9.7,0,17.6-7.9,17.6-17.6
		C843.4,1323.8,835.5,1315.9,825.8,1315.9z M825.8,1347.5C825.8,1347.5,825.8,1347.5,825.8,1347.5l0-28c0,0,0,0,0,0
		c7.7,0,14,6.3,14,14C839.8,1341.2,833.5,1347.5,825.8,1347.5z"/>
</g>
<g>
	<defs>
		
			<ellipse id="XMLID_51_" transform="matrix(0.7071 -0.7071 0.7071 0.7071 -390.2281 781.8105)" cx="748.6" cy="862" rx="184.9" ry="184.9"/>
	</defs>
	<use xlink:href="#XMLID_51_"  style="overflow:visible;fill:#96B7DA;"/>
	<clipPath id="XMLID_3_">
		<use xlink:href="#XMLID_51_"  style="overflow:visible;"/>
	</clipPath>
	<polyline class="st19" points="748.6,862 608.5,706.8 503,828.4 549.5,983.4 748.6,862 	"/>
	<polyline class="st20" points="748.6,862 615.2,1021.5 549.2,966.6 748.6,862 	"/>
</g>
<g>
	<g>
		<path class="st15" d="M1565.2,942.8h-493.7c-16.8,0-30.3-13.6-30.3-30.3V418.8c0-16.8,13.6-30.3,30.3-30.3h493.7
			c16.8,0,30.3,13.6,30.3,30.3v493.7C1595.6,929.2,1582,942.8,1565.2,942.8z"/>
		<g>
			
				<ellipse transform="matrix(0.1602 -0.9871 0.9871 0.1602 461.5573 1532.1353)" class="st17" cx="1131.2" cy="494.8" rx="37.1" ry="37.1"/>
			<g>
				<path class="st17" d="M1538.5,477.1h-335c-2.2,0-4.1-1.8-4.1-4.1v-5.3c0-2.2,1.8-4.1,4.1-4.1h335c2.2,0,4.1,1.8,4.1,4.1v5.3
					C1542.6,475.3,1540.8,477.1,1538.5,477.1z"/>
				<path class="st17" d="M1538.5,502.4h-335c-2.2,0-4.1-1.8-4.1-4.1V493c0-2.2,1.8-4.1,4.1-4.1h335c2.2,0,4.1,1.8,4.1,4.1v5.3
					C1542.6,500.6,1540.8,502.4,1538.5,502.4z"/>
				<path class="st17" d="M1538.5,526h-335c-2.2,0-4.1-1.8-4.1-4.1v-5.3c0-2.2,1.8-4.1,4.1-4.1h335c2.2,0,4.1,1.8,4.1,4.1v5.3
					C1542.6,524.2,1540.8,526,1538.5,526z"/>
			</g>
		</g>
		<g>
			
				<ellipse transform="matrix(0.9239 -0.3827 0.3827 0.9239 -145.9977 479.0532)" class="st17" cx="1131.2" cy="606.5" rx="37.1" ry="37.1"/>
			<g>
				<path class="st17" d="M1538.5,588.8h-335c-2.2,0-4.1-1.8-4.1-4.1v-5.3c0-2.2,1.8-4.1,4.1-4.1h335c2.2,0,4.1,1.8,4.1,4.1v5.3
					C1542.6,587,1540.8,588.8,1538.5,588.8z"/>
				<path class="st17" d="M1538.5,614.1h-335c-2.2,0-4.1-1.8-4.1-4.1v-5.3c0-2.2,1.8-4.1,4.1-4.1h335c2.2,0,4.1,1.8,4.1,4.1v5.3
					C1542.6,612.3,1540.8,614.1,1538.5,614.1z"/>
				<path class="st17" d="M1538.5,637.7h-335c-2.2,0-4.1-1.8-4.1-4.1v-5.3c0-2.2,1.8-4.1,4.1-4.1h335c2.2,0,4.1,1.8,4.1,4.1v5.3
					C1542.6,635.9,1540.8,637.7,1538.5,637.7z"/>
			</g>
		</g>
		<g>
			
				<ellipse transform="matrix(0.1602 -0.9871 0.9871 0.1602 241.0478 1719.7455)" class="st17" cx="1131.2" cy="718.2" rx="37.1" ry="37.1"/>
			<g>
				<path class="st17" d="M1538.5,700.5h-335c-2.2,0-4.1-1.8-4.1-4.1v-5.3c0-2.2,1.8-4.1,4.1-4.1h335c2.2,0,4.1,1.8,4.1,4.1v5.3
					C1542.6,698.7,1540.8,700.5,1538.5,700.5z"/>
				<path class="st17" d="M1538.5,725.8h-335c-2.2,0-4.1-1.8-4.1-4.1v-5.3c0-2.2,1.8-4.1,4.1-4.1h335c2.2,0,4.1,1.8,4.1,4.1v5.3
					C1542.6,724,1540.8,725.8,1538.5,725.8z"/>
				<path class="st17" d="M1538.5,749.4h-335c-2.2,0-4.1-1.8-4.1-4.1V740c0-2.2,1.8-4.1,4.1-4.1h335c2.2,0,4.1,1.8,4.1,4.1v5.3
					C1542.6,747.6,1540.8,749.4,1538.5,749.4z"/>
			</g>
		</g>
		<g>
			<circle class="st17" cx="1131.2" cy="824.9" r="37.1"/>
			<g>
				<path class="st17" d="M1538.5,807.2h-335c-2.2,0-4.1-1.8-4.1-4.1v-5.3c0-2.2,1.8-4.1,4.1-4.1h335c2.2,0,4.1,1.8,4.1,4.1v5.3
					C1542.6,805.4,1540.8,807.2,1538.5,807.2z"/>
				<path class="st17" d="M1538.5,832.4h-335c-2.2,0-4.1-1.8-4.1-4.1v-5.3c0-2.2,1.8-4.1,4.1-4.1h335c2.2,0,4.1,1.8,4.1,4.1v5.3
					C1542.6,830.6,1540.8,832.4,1538.5,832.4z"/>
				<path class="st17" d="M1538.5,856.1h-335c-2.2,0-4.1-1.8-4.1-4.1v-5.3c0-2.2,1.8-4.1,4.1-4.1h335c2.2,0,4.1,1.8,4.1,4.1v5.3
					C1542.6,854.2,1540.8,856.1,1538.5,856.1z"/>
			</g>
		</g>
	</g>
	<g>
		<path class="st15" d="M1113,481.4c1.9,1.4,3.6,2.9,5.4,4.4c1.7,1.5,3.5,3.1,5.1,4.6c3.3,3.2,6.6,6.4,9.7,9.7l-5.4,0
			c6.6-9.2,13.6-18.1,21-26.6c3.7-4.2,7.6-8.4,11.6-12.4c4-4,8.2-7.9,12.7-11.5c-2.6,5.2-5.5,10.1-8.6,14.8c-3.1,4.8-6.3,9.4-9.7,14
			c-6.7,9.1-13.9,17.8-21.6,26.1l-3,3.3l-2.4-3.3c-2.7-3.7-5.3-7.5-7.8-11.3c-1.3-1.9-2.4-3.9-3.6-5.9
			C1115.2,485.5,1114,483.5,1113,481.4z"/>
		<path class="st15" d="M1113,594.1c1.9,1.4,3.6,2.9,5.4,4.4c1.7,1.5,3.5,3.1,5.1,4.6c3.3,3.2,6.6,6.4,9.7,9.7l-5.4,0
			c6.6-9.2,13.6-18.1,21-26.6c3.7-4.2,7.6-8.4,11.6-12.4c4-4,8.2-7.9,12.7-11.5c-2.6,5.2-5.5,10.1-8.6,14.8c-3.1,4.8-6.3,9.4-9.7,14
			c-6.7,9.1-13.9,17.8-21.6,26.1l-3,3.3l-2.4-3.3c-2.7-3.7-5.3-7.5-7.8-11.3c-1.3-1.9-2.4-3.9-3.6-5.9
			C1115.2,598.2,1114,596.2,1113,594.1z"/>
		<path class="st15" d="M1113,701.2c1.9,1.4,3.6,2.9,5.4,4.4c1.7,1.6,3.5,3.1,5.1,4.6c3.3,3.2,6.6,6.4,9.7,9.7l-5.4,0
			c6.6-9.2,13.6-18.1,21-26.6c3.7-4.2,7.6-8.4,11.6-12.4c4-4,8.2-7.9,12.7-11.5c-2.6,5.2-5.5,10.1-8.6,14.8c-3.1,4.8-6.3,9.4-9.7,14
			c-6.7,9.1-13.9,17.8-21.6,26.1l-3,3.3l-2.4-3.3c-2.7-3.7-5.3-7.5-7.8-11.3c-1.3-1.9-2.4-3.9-3.6-5.9
			C1115.2,705.3,1114,703.3,1113,701.2z"/>
		<path class="st15" d="M1113,808.3c1.9,1.4,3.6,2.9,5.4,4.4c1.7,1.5,3.5,3.1,5.1,4.6c3.3,3.2,6.6,6.4,9.7,9.7l-5.4,0
			c6.6-9.2,13.6-18.1,21-26.6c3.7-4.2,7.6-8.4,11.6-12.4c4-4,8.2-7.9,12.7-11.5c-2.6,5.2-5.5,10.1-8.6,14.8c-3.1,4.8-6.3,9.4-9.7,14
			c-6.7,9.1-13.9,17.8-21.6,26.1l-3,3.3l-2.4-3.3c-2.7-3.7-5.3-7.5-7.8-11.3c-1.3-1.9-2.4-3.9-3.6-5.9
			C1115.2,812.4,1114,810.4,1113,808.3z"/>
	</g>
</g>
<path class="st21" d="M3205.6,1799.5"/>
<path class="st21" d="M506.2,1799.5"/>
<g>
	<g>
		<g>
			<g>
				<g>
					<g>
						<path class="st2" d="M1756.5,1404.8c1.8,2.8,38.6,151.8,37.7,183c-0.9,31.2-18.8,185.4-18.8,185.4h-18.9l-12.6-179.2
							c0,0-68.6-125.6-67.4-170.7S1756.5,1404.8,1756.5,1404.8z"/>
						<path class="st2" d="M1734.2,1428.7c0.3,3.3-33.2,153.1-47.9,180.6c-14.7,27.5-100.9,156.1-100.9,156.1l-15.7-7l68.7-165.9
							c0,0-5.3-143,15.9-182.9C1675.6,1369.6,1734.2,1428.7,1734.2,1428.7z"/>
						<path class="st1" d="M1711.2,1528.7l17.3-51.9l-1.9,83.9C1726.6,1560.6,1714,1535.9,1711.2,1528.7z"/>
					</g>
					<path class="st5" d="M1755.5,1771.5h20.7l-1.3,14.8c0,0,19,0.9,30.4,13.1h-48.7L1755.5,1771.5z"/>
					<path class="st5" d="M1573.2,1748.7l17.9,10.3l-6.8,11.9c0,0,14.4,10.5,18.2,26.8l-42.3-24.2L1573.2,1748.7z"/>
				</g>
				<g>
					<path class="st6" d="M1919.8,1362.3c-2.3-5.1-26.3-12.9-26.3-12.9c-60.4-22.4-97.5-27.7-97.5-27.7l-42.5-56.7l-30.7,39.5
						c0,0,43.6,40.9,59.3,47.8c15.7,6.9,109.7,7.7,109.7,7.7s0.7,0.2,1.8,0.4c3.5,2.4,9.8,6.7,11.6,6.3c1.2-0.3-0.7-2.4-3-4.4
						C1910.7,1364,1921.2,1365.4,1919.8,1362.3z"/>
					<path class="st4" d="M1718.5,1221.8c0,0,83.2,48.2,53.4,98.9c-20.7,35.2-6.9,86.9-3.3,98.7c0.5,1.5,0,3.2-1.3,4.3
						c-7.4,6.3-34.3,26.5-71.4,22.5c-29-3.1-44.6-11.7-51.9-17.2c-3.3-2.5-4.8-6.6-3.9-10.6l18.2-78.1c0,0-6.2-99.3,31-116.1
						L1718.5,1221.8z"/>
					<path class="st4" d="M1692.8,1221.8c0,0-78.8,19.6-36.9,128.8l33.4-29.2L1692.8,1221.8z"/>
					<path class="st6" d="M1812.7,1208.8c-8.2-5.2-21,2.6-29.3,9c0.2-4.4,0.3-10-0.3-11.8c-1-3.1-7.8,18.7-7.8,18.7
						s-42.1,89.6-48.2,87.9c-8.2-2.3-33.5-42.3-43.9-59.2c-3.5-5.7-11.1-7.5-16.7-3.9c-17.3,11.1-21.9,44.4-11.1,56.1
						c13.1,14.2,59.7,60.9,88,46.5c28.2-14.4,43.4-122,43.4-122l0,0C1786.8,1230.2,1825.6,1217,1812.7,1208.8z"/>
					<g>
						<path class="st5" d="M1703.6,1140c10.6-0.1,21.6,3.8,28.3,11.9c2.9,3.5,5,7.7,6.8,12c2.1,5,3.8,10.1,5.6,15.2
							c3.7,10.8,7.4,21.7,11.1,32.5c-3,2.6-6.9,4.7-10.6,5.9c-9.8,3.2-20.2,4.6-30.5,4c-2.9-5.3-5.6-10.7-8.5-16
							c-1.7-3.2-3.5-6.4-4.5-9.9c-1.3-4.3-1.4-8.9-1.4-13.4C1699.8,1168.3,1700.6,1153.6,1703.6,1140z"/>
						<g>
							<g>
								<g>
									<defs>
										<path id="XMLID_35_" d="M1730.3,1164c0,0,20.5,47.5-5.2,49.5s-45.1-25.3-38.8-45C1692.5,1148.7,1718.9,1132.3,1730.3,1164
											z"/>
									</defs>
									<use xlink:href="#XMLID_35_"  style="overflow:visible;fill:#E59DAD;"/>
									<clipPath id="XMLID_4_">
										<use xlink:href="#XMLID_35_"  style="overflow:visible;"/>
									</clipPath>
									<path class="st22" d="M1713,1173c-2.1-0.1-4.3-0.5-6.2-1.4c-1.7-0.8-3.2-2.1-4.3-3.6c-2.2-2.8-3.5-6.4-3.1-10
										c0.4-3.6,2.5-7,5.7-8.6c2.2-1.1,4.8-1.3,7.4-1.2c7.1,0.5,14,4.1,17.7,10.4c1.3,2.2,2.3,4.9,1.4,7.5
										c-0.9,2.7-3.6,4.2-6.1,5.2C1721.5,1172.9,1717.2,1173.3,1713,1173z"/>
								</g>
								<path class="st6" d="M1685.1,1179c0,0,5,26.5,2.3,50.8c-0.4,4,2.2,7,5.3,9.5c4.5,3.7,15.6,7.6,23.6,6.4
									c12.4-2-7-54.4-7-54.4L1685.1,1179z"/>
							</g>
							<path class="st8" d="M1716.3,1213c0,0-4.7,0.2-13.5-7c0,0,3.5,13.4,15.6,15.8C1718.5,1221.8,1716.5,1213.5,1716.3,1213z"/>
						</g>
						<path class="st5" d="M1710.4,1158.6c-2.6,25.2-5,51.2,2.1,75.6c-21.9,2.8-44.1-1.5-63.8-11.4c-0.8-19,3.4-38.8,10.8-56.3
							c3.5-8.2,7.9-16.3,14.7-22.2c6.8-5.9,16.3-9.2,24.9-6.8C1707.8,1139.9,1711.3,1149.7,1710.4,1158.6z"/>
						<path class="st5" d="M1709.4,1157.7c2.2,4.5,7,7.2,11.9,8.1s10,0.3,14.9-0.3c-2.8-5-6.5-9.5-10.7-13.3
							c-2.4-2.2-5.1-4.2-8.1-5.5c-2.7-1.1-5.7-1.7-8.6-1.1c-0.7,0.1-0.8,0.2-0.8,0.9c-0.1,0.7-0.1,1.5-0.1,2.2c0,1.5,0,2.9,0.2,4.4
							C1708.3,1154.6,1708.7,1156.2,1709.4,1157.7z"/>
					</g>
				</g>
			</g>
			<path class="st9" d="M1655.3,1305.7c0,0,31.3,35.2,57.6,44.9C1713,1350.6,1669.6,1343.3,1655.3,1305.7z"/>
		</g>
	</g>
	<g>
		<path class="st3" d="M1472.5,1069c-41.9,0-76,24.4-76,54.5c0,17.9,12.1,33.8,30.7,43.7l-6.7,26.5c-0.6,2.2,1.8,4.1,3.8,3l36-19.4
			c4,0.5,8,0.7,12.1,0.7c41.9,0,76-24.4,76-54.5S1514.4,1069,1472.5,1069z"/>
		<g>
			<circle class="st15" cx="1437.9" cy="1124.4" r="7.5"/>
			<circle class="st15" cx="1472.5" cy="1124.4" r="7.5"/>
			<circle class="st15" cx="1507.1" cy="1124.4" r="7.5"/>
		</g>
	</g>
</g>
<g>
	<g>
		<g>
			<path class="st23" d="M394.9,1575.8c-23.7-1.4-47.9-4.3-69.3-14.7c-21.4-10.4-39.7-29.5-43.6-53c12.9-4.4,25.8-7.5,39.3-9.6
				c-14.7-1-29.5-0.5-44.2-0.1c-3.9-11.9-8.4-23.7-12.2-35.6c-1.8-5.5-3.6-11-5.8-16.2c-3.1-7.2-7.1-14-9.9-21.4
				c10.5-7.9,23.2-13.7,35.9-16.9c-2.6-2.2-6.6-2.6-10-2.9c-10.3-1-20.8-1.2-31.2-0.8c-1-14.6-13.4-26.9-15.9-41.4
				c-1.4-8.1,0.1-16.6-2.1-24.6c-1.6-5.7-5-10.8-7-16.4c-4-11.5-1.5-24.6-5.7-36.1c8.9-8.1,19.9-15.1,31.2-19.3
				c-11.5-2-23.8-3.1-35.5-2.8c0.7-21.5,0.8-43.2,1.5-64.7c0.2-7.1,0.5-14.3,2.8-21c2.7-7.7,7.8-14.2,12.9-20.5
				c3.6-4.6,7.3-9.1,10.9-13.7c15.4,9.2,30.4,18.5,43.9,30.3c13.6,11.8,25.2,26.3,30.9,43.3c-10.8,6.9-21.4,14.9-31,23.4
				c11.4-6.2,23.5-11.2,36-14.8c4.7,19.7,18.8,35.9,22.8,55.7c-9.6,12.9-20.3,24.7-32.2,35.5c14.4-6.1,28.5-12.9,42.2-20.4
				c13.7,31.1,29.9,62.9,48.4,91.4c-12.5,11.5-26.1,22.9-38.6,34.4c15.4-6.9,30.8-13.7,46.1-20.6c-3.1,27.6,10.4,54.6,15.2,82
				c3.7,21,2.3,42.8-3.9,63.1c-2.7,8.7-6.3,17.3-12.2,24.2C402.6,1574.8,397.9,1577.8,394.9,1575.8z"/>
			<path class="st24" d="M433,1690.6c-6.2-23.4-12.9-46.6-20-69.8c-7-23.1-14.4-46.2-22.4-69c-8-22.8-16.6-45.5-26.6-67.4
				c-10-22.1-19.4-44.4-28.7-66.7c-18.5-44.8-36.3-89.8-53.4-135.1c-8.5-22.7-16.8-45.4-24.6-68.3c-3.9-11.5-7.7-23-11.2-34.5
				c-3.5-11.6-6.9-23.2-8.9-35.2c2,11.9,5.5,23.6,9.1,35.1c3.6,11.6,7.5,23,11.4,34.5c7.9,22.9,16.4,45.6,25,68.2
				c17.3,45.2,35.3,90.2,54.1,134.8c9.4,22.3,18.9,44.6,29.1,66.5c10.2,22,18.9,44.7,27.1,67.5c8.1,22.8,15.7,45.9,22.9,69
				c7.2,23.1,14,46.4,20.4,69.8L433,1690.6z"/>
			<path class="st24" d="M446.2,1572.5c-7.6-9.4-11.2-21.6-11.7-33.7s2.1-24.1,5.7-35.7c8.3,4.4,16,9.9,23.2,15.9
				c-3.7-10.9-8.4-21.5-14.1-31.5c3-3.5,6.1-7.6,9.1-11.1c13.6-16,27.7-32.3,46.1-42.4c3.7,11,7.1,22.5,10.9,33.5
				c-0.1-14.4,0.6-28.9,2.1-43.2c7.1-2.7,14.3-4.7,21.9-5.8c3.4-0.5,6.9-0.8,10.3-1.7c5-1.3,9.8-3.7,15-4.1
				c2.2,10.4,2.9,21,2.7,31.6c6.4-11.2,5.8-25.1,11.3-36.7c14.9-0.6,30.1-1.8,45-3.3c-0.8,7.5-1.1,15.1-0.8,22.6
				c2.8-8.2,5.8-16.4,8.9-24.6c22.2-1.1,42.4,0.8,64.3,4.3c-1.8,6.2-3.7,13-6.1,19c3.3-6.4,7.4-12.3,12.1-17.7
				c4.4,1.3,8.9,3.7,12.4,6.6c2.2,1.8,4.2,3.9,6.8,5.1c1.8,0.8,3.7,1.1,5.5,1.6c11.7,3,20.3,12.7,28.2,21.9
				c-16.9-0.8-33.7,3.7-50.2,7.8c-30.5,7.5-60.9,15.3-91.2,23.5c-10.6,2.9-21.1,5.8-31.4,9.4c-35.1,12.4-66.7,33.1-97.8,53.7
				c-7.4,4.9-14.8,9.8-21.7,15.3C456,1557.8,452,1566,446.2,1572.5z"/>
			<path class="st23" d="M399.3,1692.5c1.1-10,2.9-19.7,5.1-29.4c2.2-9.7,4.9-19.2,8-28.6c6.3-18.8,14.5-37.1,25.4-53.7
				c5.4-8.3,11.6-16.2,18.4-23.4c1.7-1.8,3.5-3.5,5.3-5.3c1.8-1.7,3.7-3.3,5.5-5c1.8-1.7,3.7-3.3,5.5-5l5.7-4.8
				c3.7-3.3,7.7-6.2,11.5-9.3c1.9-1.5,4-3,5.9-4.4c2-1.5,4-3,6-4.3c8.1-5.7,16.6-10.9,25.3-15.5c8.8-4.6,17.9-8.6,27.2-12
				c9.3-3.4,18.8-6.2,28.3-9c18.9-5.7,37.7-11.6,56.7-17c19-5.4,38.1-10.6,57.3-14.9c19.3-4.2,38.8-8.1,58.6-8.1
				c-19.8,0.1-39.3,4.1-58.5,8.5c-19.2,4.4-38.3,9.7-57.2,15.3c-18.9,5.6-37.7,11.6-56.6,17.4c-9.5,2.9-18.9,5.7-28.1,9.1
				c-9.2,3.4-18.2,7.4-26.9,12.1c-8.7,4.7-17.1,9.8-25,15.6c-2,1.4-4,2.9-6,4.3c-2,1.5-4,2.9-5.9,4.5c-3.8,3.1-7.7,6.1-11.4,9.4
				l-5.6,4.8c-1.8,1.6-3.6,3.3-5.5,5c-1.8,1.7-3.7,3.3-5.4,5c-1.7,1.7-3.5,3.4-5.2,5.2c-6.7,7.1-12.7,15-18,23.2
				c-10.6,16.5-18.6,34.6-24.7,53.3c-3,9.3-5.6,18.8-7.7,28.4c-2.1,9.6-3.9,19.3-4.9,29L399.3,1692.5z"/>
		</g>
		<g>
			<path class="st23" d="M442.5,1460.9c-9-9-18.3-18.5-22.1-30.6c-1.6-5-2.1-10.3-2.5-15.6c-1.5-22.7,0.4-45.6,5.8-67.6
				c9.3,0,19.5-1.1,28.8-0.3c-7.1-5.3-14.7-9.8-22.7-13.5c8.9-24.7,18.7-50.9,31.1-74c6.5,4,13.5,7.9,20.4,11.3
				c-4.5-6.5-9.5-12.8-14.9-18.7c3.6-9.1,9.1-17.4,14.7-25.4c6.1-8.7,12.1-17.4,18.2-26.1c10.5,4.3,21.2,9,31.7,13.3
				c-6.4-9.4-16.7-15.9-22.2-25.8c4-9.8,11.7-17.9,20.4-24c8.6-6.1,18.3-10.6,28-15c1.6,3.5,3.2,7,4.8,10.5c1.5-4.7,3.1-9.3,4.6-14
				c0.5-1.4,1-2.9,2-4.1c1.4-1.6,3.6-2.3,5.6-2.9c8.7-2.6,17.5-5.2,26.2-7.6c-0.4,6.6,1.8,13.7,3.2,20.2c2.1,9.7,2.2,19.9,0.3,29.6
				c-11.2,0.9-24.9,3.2-35.7,5.8c10.6,0,21.1,0,31.7,0c-5.5,14.3-10.9,30.3-15.8,44.8c-10.5,1.1-21.1,2.1-31.7,1.9
				c6.6,3.1,14.1,3.6,21.4,4c3.4,0.2,6.8,0.4,10.2,0.6c-10.3,21.2-21.4,42.3-33,62.9c-10.3,0.1-21.2,0-31.5,0.1
				c11.8,3.9,23.6,7.5,35.6,10.8c-4.6,7.4-9.4,14.6-14,22c-3.5,5.7-7,11.5-10,17.5c-5.6,11.5-8.9,23.9-12.3,36.3
				c-15.6,4.6-31.4,7-47.6,8.6c7.5,1.6,15.2,1.5,22.9,1.4c6.4-0.1,12.7-0.2,19.1-0.3C499.7,1427.7,474.8,1451,442.5,1460.9z"/>
			<path class="st24" d="M415.2,1692.6c3.2-50.1,7.3-100,13.1-149.9c2.9-24.9,6.2-49.8,10.9-74.5c0.6-3.1,1.2-6.2,1.8-9.2l2.2-9.2
				l1.1-4.6l1.3-4.5c0.8-3,1.9-6,2.8-9c3.9-11.9,8.3-23.7,12.9-35.4c9.2-23.3,19.2-46.4,29.5-69.2c10.3-22.8,21.1-45.5,32.3-67.9
				c11.2-22.4,22.8-44.7,35.1-66.5c6.2-10.9,12.5-21.7,19.3-32.2c3.4-5.3,6.9-10.5,10.6-15.5c0.9-1.3,1.9-2.5,2.9-3.7
				c1-1.2,1.9-2.5,3-3.7c1-1.2,2-2.4,3.1-3.5l3.3-3.3l-3.3,3.3c-1.1,1.2-2,2.4-3.1,3.6c-1,1.2-2,2.4-2.9,3.7
				c-0.9,1.3-1.9,2.5-2.8,3.7c-3.6,5.1-7.1,10.3-10.5,15.6c-6.7,10.6-13,21.4-19.1,32.4c-12.1,21.9-23.6,44.2-34.6,66.7
				c-11,22.5-21.6,45.2-31.8,68.1c-10.2,22.9-19.9,46-29,69.3c-4.5,11.7-8.8,23.4-12.6,35.3c-0.9,3-1.9,5.9-2.7,9l-1.2,4.5l-1.1,4.6
				l-2.1,9.1c-0.6,3.1-1.2,6.1-1.7,9.2c-4.5,24.6-7.6,49.4-10.3,74.3c-5.4,49.8-9.1,99.8-12,149.7L415.2,1692.6z"/>
		</g>
	</g>
	<g>
		<defs>
			<polygon id="XMLID_90_" points="427.2,1621.4 414,1621.4 363.9,1621.4 387.4,1792.5 414,1792.5 427.2,1792.5 453.7,1792.5 
				477.3,1621.4 			"/>
		</defs>
		<use xlink:href="#XMLID_90_"  style="overflow:visible;fill:#24235C;"/>
		<clipPath id="XMLID_5_">
			<use xlink:href="#XMLID_90_"  style="overflow:visible;"/>
		</clipPath>
		<path class="st25" d="M443,1691.8c-19.1,7.2-40.1,8.5-60.4,6.7c-17-1.5-35.2-5.9-46.1-19.1c-10.9-13.1-11.8-32.9-4.6-48.4
			c7.2-15.5,21.4-27,37.1-33.7c15.7-6.8,32.9-9.3,49.9-10.7c14.5-1.2,29.3-1.6,43.2,2.6c9.6,2.9,18.7,8.1,25.3,15.8
			c7.6,8.7,9.9,19.5,10.2,30.9c0.2,8,0.6,17.3-5.1,23.7c-4.7,5.3-11.8,8.4-17.4,12.6C464.7,1679.8,455.2,1687.2,443,1691.8z"/>
	</g>
</g>
<path class="st1" d="M3287.6,1805.4H208.9c-3.6,0-6.5-2.9-6.5-6.5s2.9-6.5,6.5-6.5h3078.7c3.6,0,6.5,2.9,6.5,6.5
	S3291.2,1805.4,3287.6,1805.4z"/>
</svg>
