<?xml version="1.0" encoding="utf-8"?>
<!-- Generator: Adobe Illustrator 24.1.1, SVG Export Plug-In . SVG Version: 6.00 Build 0)  -->
<svg version="1.1" id="Layer_1" xmlns="http://www.w3.org/2000/svg" xmlns:xlink="http://www.w3.org/1999/xlink" x="0px" y="0px"
	 viewBox="0 0 360 360" style="enable-background:new 0 0 360 360;" xml:space="preserve">
<style type="text/css">
	.st0{fill:#E1472E;}
	.st1{fill:#DADADA;}
	.st2{fill:#3DAECA;}
	.st3{display:none;}
	.st4{display:inline;fill:#DADADA;}
	.st5{display:none;fill:#DADADA;}
</style>
<g>
	<path class="st0" d="M220.9,19c-23.7,2.5-47.5,5-71.2,7.5c-5.3,6.4-12,15.7-17.9,28c-4.7,9.7-12.2,25.3-12.9,46.7
		c-1.1,31.9,13.7,55,18.9,62.9c4.4,6.7,8.8,11.8,11.9,15.2c5.8,6.5,14.6,14.7,26.9,21.3c5,2.7,20.7,10.6,42.5,11.6
		c11,0.5,19.2-0.9,27.7-2.5c12.2-2.2,30-6.8,50.5-17c4.7-10.3,9.5-22.6,13.5-36.8c4.5-16.1,7-30.8,8.3-43.2
		c-1.4,1.7-2.8,3.4-4.2,5.1v-2.1c-2.9,3.9-7.1,9.2-12.7,15c-8.2,8.4-16.4,14.8-26.6,21.7c-25.5,17.1-38.2,25.6-56.6,28.6
		c-10.2,1.7-23.9,3.9-37.3-3.6c-12.6-7.1-18.1-19.1-20.8-24.9c-1.2-2.7-7.2-16.2-5.3-34.2c1.2-11.7,5.3-19.8,10.9-31
		c5.4-10.9,11.2-19.2,15.5-24.9C194.8,48,207.8,33.5,220.9,19z"/>
	<rect x="41" y="98.8" class="st1" width="16.4" height="171.8"/>
	<path class="st1" d="M240.1,276.3C173.7,217.1,107.3,158,41,98.8c5.6,0,11.1,0,16.7,0C128.4,158,199.2,217.1,270,276.3
		C260,276.3,250,276.3,240.1,276.3z"/>
	<rect x="240.1" y="76.4" class="st1" width="29.9" height="199.9"/>
	<path class="st2" d="M41,270.6c68.7-76.9,118.6-132.8,131.6-147.5c1.8-2.1,7.7-8.8,16.5-16.9c6-5.6,12.8-12,22.4-18.4
		c6.8-4.5,16.7-10.3,30-15.2c5.5,1.5,14.3,3.2,24.9,1.9c6.8-0.8,12.4-2.5,16.6-4.2c-3,4.3-7.1,10.1-12.2,16.8
		c0,0-16.8,22.2-34.5,41.5c-26.2,28.6-55.4,51-85.6,74.1c-17.9,13.7-35.3,26.1-60.4,44.2C76.5,256.9,65,265,57,270.6
		C51.7,270.6,46.3,270.6,41,270.6z"/>
	<g class="st3">
		<path class="st4" d="M57,282.3h6l8.8,25.6l8.8-25.6h6v32.9h-4.4V290l-8.8,25.2h-3.1L61.4,290v25.2H57V282.3z"/>
		<path class="st4" d="M117.2,306.6l-9.7-24.7h-3.8l-13.1,33.2h4.6l4-10h12.7l1.1,2.6l0.4,1c0.9-0.4,1.6-1.3,3-1.4
			c0.5,0,0.9,0.1,1.1,0.1L117.2,306.6z M100.6,301.6l5-13.3l5,13.3H100.6z"/>
		<path class="st4" d="M120.6,315.2H116l-0.1-0.3l-0.5-1.3l-1.9-4.7c0.9-0.4,1.6-1.3,3-1.4c0.5,0,0.9,0.1,1.1,0.1l1.5,3.9l0.4,1.1
			L120.6,315.2z"/>
		<path class="st4" d="M152.7,282.1h4.6l10.2,26.7l10.2-26.7h4.6l-13.1,33.2h-3.5L152.7,282.1z"/>
		<path class="st4" d="M184.8,282.3h8.6v4.2h-2.1V311h2.1v4.2h-8.6V311h2.1v-24.4h-2.1V282.3z"/>
		<path class="st4" d="M202.6,285.6c2.4-2.4,5.6-3.7,9.4-3.7c3.8,0,6.9,1.1,9,3.3c2.3,2.3,3.5,5.3,3.7,8.8h-4.6
			c-0.3-2.7-1.1-4.7-2.5-6.1c-1.5-1.5-3.4-2.3-5.6-2.3c-2.3,0-4.4,0.9-6.1,2.7c-2.3,2.3-3.5,5.8-3.5,10.6c0,4.7,1.2,8.3,3.5,10.6
			c1.7,1.7,3.7,2.5,6.1,2.5c2.6,0,4.5-0.7,6-2.1c1.8-1.8,2.7-4.4,2.7-7.7h4.6c-0.1,4.4-1.4,7.8-3.8,10.2c-2.2,2.2-5.3,3.3-9.4,3.3
			c-3.8,0-7-1.2-9.4-3.7c-3.2-3.2-4.8-7.6-4.8-13.1C197.8,293.2,199.4,288.8,202.6,285.6z"/>
		<path class="st4" d="M231.3,282.3h4.4v15l15-15h5.6l-13.1,13.1l13.3,19.8h-5.2l-11.1-16.7l-4.4,4.4v12.3h-4.4V282.3z"/>
	</g>
	<g class="st3">
		<path class="st4" d="M159.5,313.5c-1.5-2-3.9-1.9-4.1-1.9c-1.7,0-3.3,1-4.7,2.2c0,0,0,0-0.1,0.1c0,0,0,0,0.1-0.1l-0.8-1.6
			c-0.5,0.7-1.4,1.7-2.5,2.9c-1.6,1.8-3.7,4.1-5.7,7.1c-1.5-0.4-3.1-0.4-4.6,0c-2.1,0.5-3.9,1.7-4.9,3.3c-1.5,2.4-2,5.4-1.2,8
			c0.6,1.9,2,4.4,5.7,6c0,0,2.2,1,6.2,1.1c1.3,0,2.7-0.2,4.1-0.7c1.6-0.5,3.2-1.4,4.6-2.5c1.6-1.2,3.1-2.9,4.4-4.7
			c1.4-2.1,2.6-4.6,3.5-7.3c0.9-3,1.4-5.5,1.3-7.6C160.8,315.9,160.3,314.5,159.5,313.5z M155.4,327.5c0,0-2.3,4.7-6.2,8.1
			c-2.8,2.5-6.6,4.3-10.8,3.2c-0.4-0.1-0.9-0.3-1.3-0.5c-2.6-1.1-4.4-2.9-5.2-5.3c-0.4-1.2-0.4-2.5-0.2-3.7c0.2-1.2,0.6-2.4,1.3-3.4
			c0.9-1.4,2.4-2.4,4.3-2.9c1.2-0.3,2.6-0.4,3.8-0.1c-0.1,0.1-0.1,0.2-0.2,0.3c-3.3,5.3-2,8.3-0.9,9.7c0.3,0.3,0.8,0.1,0.8-0.3
			c-0.1-2.2,1.4-5.5,3-8.4c1.9,1.7,1.9,4.1,1.9,4.1c0.1,2.1-1,3.7-1.3,4c-0.5,0.5-0.1,0.8-0.1,0.8c0.4,0.5,0.9,0.7,1.2,0.6
			c0.5-0.1,0.8-0.4,0.8-0.4c0.5-0.6,0.9-1.5,1-2.3c0.1-0.6,0.2-1.5,0.1-2.1c0-1.1-0.3-2.2-0.7-3.1c-0.5-1.1-1.3-2-2.2-2.6
			c0.7-1.2,1.4-2.3,2-3.2c0.5-0.6,1.8-2.3,3.3-3.8c0.4-0.4,0.9-0.9,1.3-1.2c0.1-0.1,0.2-0.2,0.3-0.3c1.5-1.3,2.8-2.1,4.3-2.1
			c0,0,0.8-0.1,1.5,0.3C157,312.9,162,314.7,155.4,327.5z"/>
		<path class="st4" d="M116.5,307.5c-1.4,0.1-2.2,1-3,1.4c-0.3,0.2-0.7,0.2-1.1,0.2c-0.1,0-0.7-0.1-1.1-0.6
			c-0.1-0.1-0.4-0.4-0.4-0.9c0-0.1,0-0.6,0.2-0.7c0.4-0.2,0.8,0.9,1.6,1c0.1,0,0.2,0,0.3,0c0.4-0.1,0.7-0.6,1.7-1
			c0.2-0.1,0.8-0.3,1.6-0.3c0.3,0,0.6,0,0.9,0.1c0.4,0.1,0.6,0.1,0.8,0.2c0.6,0.2,1,0.5,1.1,0.6c0.3,0.2,0.9,0.6,1.3,1.3
			c0.2,0.3,0.5,1,0.4,1.8c-0.1,0.7-0.4,1.1-0.6,1.4c-0.2,0.3-0.4,0.5-0.6,0.7l-0.4-1.1l0.1-0.1c0.2-0.2,0.6-0.7,0.6-1.3
			c0.1-0.8-0.4-1.4-0.6-1.6c-0.5-0.6-1.1-0.8-1.5-0.9c-0.1,0-0.1,0-0.2,0C117.3,307.5,116.9,307.4,116.5,307.5z"/>
		<path class="st4" d="M150.9,313.5c-0.1,0.1-0.1,0.2-0.2,0.2l-0.8-1.6c0.5-0.7,0.7-1.2,0.5-1.5c-0.1-0.1-0.2-0.2-0.4-0.2
			c-0.3-0.1-0.6-0.1-1,0c-0.2,0-0.5,0.1-0.7,0.1c-0.9,0.2-2.1,0.6-3.4,1.1c-0.2,0.1-0.4,0.2-0.6,0.3c-1.1,0.5-5.3,2.6-5.3,2.6
			c-5.2,2.9-9.3,4.7-12.7,5.7c-1.9,0.6-3.7,0.9-5.2,0.9c-0.9,0-1.8-0.1-1.8-0.1c-0.4-0.1-0.9-0.1-1.4-0.4c-0.6-0.2-1.1-0.5-1.4-0.7
			c-0.5-0.3-1.1-0.7-1.7-1.5c-0.3-0.5-0.8-1.1-0.8-2c0-0.8,0.3-1.4,0.4-1.6c0.2-0.5,0.6-0.8,1-1.1l0.5,1.3c-0.1,0.1-0.1,0.1-0.2,0.2
			c-0.1,0.2-0.5,0.8-0.4,1.5c0.1,0.4,0.2,0.7,0.6,1.2c0.3,0.4,0.7,0.9,1.3,1.4c0.7,0.5,1.3,0.6,2,0.7c0,0,0.9,0.2,1.9,0.2
			c4,0,9.6-2.1,17.5-6.4c0.1-0.1,2.6-1.5,5.3-2.7c0.2-0.1,0.4-0.2,0.6-0.2c1.4-0.6,2.6-1,3.6-1.2c0.2,0,0.3-0.1,0.5-0.1
			c1-0.2,1.7-0.1,2.2,0.2c0.1,0,0.2,0.1,0.2,0.1C151.7,310.2,152.7,311.2,150.9,313.5z"/>
		<path class="st4" d="M172.4,325.6c-0.6,0.9-1.9,3.1-3.4,4.9c0,0-1.2,1.5-2.8,2.5c-1.1,0.6-2.4,0.9-3.6,0.4
			c-1.6-0.6-2.2-1.9-2.2-3.2c0-1.8,1.1-3.6,1.1-3.6c1.6-2.9,4.6-5.2,6.8-5c0,0,0.4,0,0.6,0.2c0.3,0.2,0.5,0.4,0.6,0.6
			c0.2,0.4,0.3,0.8,0.2,1.4c0,0-0.2,1.3-1.3,2.6c-0.7,0.8-1.9,1.7-3.4,1.4c0,0-0.7-0.2-1-0.6c0,0.1-0.1,0.1-0.1,0.2
			c-2.6,4.2-0.8,5.3-0.8,5.3c0.9,0.5,2,0.1,2.9-0.5c1.3-0.9,2.3-2.2,2.3-2.2c0.9-1.1,1.9-2.6,3.2-4.6c0.1-0.2,0.3-0.3,0.5-0.3
			C172.3,325.1,172.5,325.3,172.4,325.6z M164.9,326.1c-0.4,0.6,0.2,0.9,0.2,0.9c0.4,0.2,0.9,0.1,1.3,0c0.7-0.3,1.3-0.9,1.3-0.9
			c1-1.1,1.3-2.3,1.3-2.3c0.3-1.1-0.2-1.3-0.2-1.3C168.6,322.5,167.7,322.3,164.9,326.1z"/>
		<path class="st4" d="M181,325.6c-0.2,0.3-0.5,0.9-0.9,1.5c0,0-1,1.8-3,2.2c-0.1,0.7-0.4,1.4-0.8,2.1c-1.1,1.8-3.5,2.7-5.3,1.9
			c0,0-2-0.8-1.3-2.9c0,0,0.8-2.7,5.1-2c0.1,0,0.2,0,0.2,0c-0.2-1.4-1.4-3.3-1.9-4c-0.6,1.1-1.1,1.7-1.4,2.2c-0.2,0.2-0.5,0.2-0.6,0
			c-0.1-0.2-0.1-0.4,0-0.5c0.5-0.8,1-1.5,1.5-2.4c-1.9-2.6-0.5-4,0.6-4.2c1.3-0.2,1.4,0.8,1.4,0.8c0.2,0.8-0.5,2.2-0.8,2.8
			c0.2,0.2,0.5,0.5,0.9,0.9c1,1,2.3,2.5,2.3,4.4c0.7-0.2,1.5-0.5,2.1-1.5c0.3-0.5,0.6-1,1-1.5c0.1-0.2,0.2-0.3,0.5-0.3
			C180.9,325.1,181.1,325.3,181,325.6z M174.9,329.3c-1.8-0.1-3.6-0.2-4.1,1.2c-0.3,0.8,0.5,1.2,0.5,1.2
			C173.8,332.7,174.9,329.3,174.9,329.3z M173.4,322.3c0.1-0.2,0.2-0.5,0.3-0.7c0.3-1-0.3-0.9-0.3-0.9
			C173.1,320.7,172.7,321.2,173.4,322.3z"/>
		<path class="st4" d="M187,325.6c-1.1,1.8-5,8.2-7.5,7.8c0,0-2.6-0.1-1-4.6c1.1-2.9,3-5.6,3.8-6.7c0.2-0.3,0.6-0.5,1-0.5h0.9
			c0.4,0,0.6,0.5,0.4,0.8c-1.6,2.4-6.1,9.6-5,10.2c0,0,2,0.3,6.6-7.3c0.1-0.2,0.3-0.3,0.5-0.3C186.9,325.1,187.1,325.3,187,325.6z
			 M183.4,320.4c0-0.3,0.5-0.6,1-0.6c0.6,0,1,0.3,1,0.6s-0.5,0.6-1,0.6C183.8,321,183.4,320.7,183.4,320.4z"/>
		<path class="st4" d="M188.8,331.7c-0.9,0.9-1.7,1.4-2.4,1.5c0,0-0.3,0.1-0.6,0.1c0,0-2.3,0.2-1.5-4c0.8-3.8,5-8,7.9-7.7
			c0,0,0.4,0,0.6,0.2c0.3,0.2,0.5,0.4,0.7,0.6c0.1,0.2,0.1,0.3,0.2,0.5c0.2-0.4,0.5-0.6,0.6-0.9c0.2-0.3,0.6-0.5,1-0.5h0.9
			c0.4,0,0.7,0.5,0.5,0.8c-1.3,1.9-4.3,6.7-5,9v0c-0.2,0.6-0.2,1.1,0,1.2c0,0,2,0.3,6.6-7.3c0.1-0.2,0.3-0.3,0.5-0.3
			c0.3,0,0.4,0.3,0.3,0.5c-1.1,1.8-5,8.2-7.5,7.8c0,0-0.3,0-0.7-0.2c-0.4,0.8-0.9,1.7-1.7,2.6c1.9,0.4,3.7,0.7,5.3,0.9
			c2.9,0.3,4.3-0.4,5-1.5c0.4-0.6,0.8-0.4,0.8-0.4c0.6,0.2,0.9,0.6,1,0.9c0.1,0.5-0.1,0.9-0.1,0.9c-1.4,2.6-6.9,1.5-6.9,1.5
			s-2.9-0.5-5.9-1.2c-2.2,2.4-5.4,4.6-10.1,4c0,0-2.3-0.3-3.8-1.3c-1.1-0.7-1.8-1.9-1.3-3.4c1-3.1,7.7-2,14-0.7
			c0.9-1.2,1.9-2.8,2.7-4.6C189.6,330.8,189.1,331.4,188.8,331.7z M186.1,336.3c-3.7-1-11.7-2.5-12.6,0.1c-0.5,1.5,1.1,3.2,4.7,3.4
			C180.8,340.1,183.6,339.1,186.1,336.3z M190.6,328.1c0.6-1.4,1.4-2.8,2.1-3.9c0.1-0.2,0.3-1,0-1.4c-0.1-0.1-0.1-0.2-0.2-0.2
			c-0.2-0.1-1.2-0.4-4.8,4.7c0,0-2.9,4.4-1.8,5.1c0.1,0,0.2,0.1,0.4,0c0.7-0.3,1.6-1,2.6-2.1C189.7,329.5,190.3,328.6,190.6,328.1z"
			/>
		<path class="st4" d="M210.5,325.6c-1.1,1.8-5.1,8.2-7.5,7.8c0,0-2.8-0.1-1.1-4.6c0.3-0.9,1.5-3.3,1.5-3.3c1.6-2.9,1.2-2.9,1.2-2.9
			c-0.4-0.4-1.8,0.7-3.7,3.6c-1.9,2.9-3.2,6.8-3.2,6.8c-0.1,0.2-0.3,0.3-0.5,0.2c-2.2-1.4,0.1-6.5,0.1-6.5c0.6-1.5,1.5-3.1,2.4-4.4
			c0.2-0.4,0.7-0.7,1.2-0.7l0.8,0c0.4,0,0.6,0.4,0.4,0.7c-1.1,1.7-2.1,3.3-2.7,4.6c-0.7,1.4-1.1,2.5-1.4,3.4
			c0.9-2.4,2.9-5.9,4.7-7.7c0.8-0.8,1.6-1.3,2.6-1.1c2.9,0.6-0.3,5.6-0.3,5.6c-1.5,2.6-2.7,5-2,5.4c0,0,2,0.3,6.6-7.3
			c0.1-0.2,0.3-0.3,0.5-0.3C210.5,325.1,210.6,325.3,210.5,325.6z"/>
	</g>
	<path class="st5" d="M151.2,314.7l-0.5-0.9v0l-0.8-1.6l-0.9-1.7c-0.2,0-0.5,0.1-0.7,0.1c-0.9,0.2-2.1,0.6-3.4,1.1l1.6,3.4h4.8
		L151.2,314.7z M148.5,309.4l-4.7-9.2c1.7-0.3,2.9-0.8,3.8-1.7c1.7-1.7,2.5-4,2.5-6.9c0-2.9-0.8-5.2-2.5-6.9
		c-1.7-1.7-3.8-2.5-6.3-2.5h-16.1V315h4.4v-14.2h10l4.8,9.9c1.4-0.6,2.6-1,3.6-1.2C148.2,309.5,148.4,309.4,148.5,309.4z
		 M129.6,297.1v-11.3h10.8c1.4,0,2.6,0.5,3.7,1.5c1,1,1.5,2.4,1.5,4.2c0,1.9-0.5,3.3-1.3,4.2c-0.9,0.9-2,1.3-3.3,1.3H129.6z"/>
</g>
</svg>
