<?xml version="1.0" encoding="utf-8"?>
<!-- Generator: Adobe Illustrator 24.1.1, SVG Export Plug-In . SVG Version: 6.00 Build 0)  -->
<svg version="1.1" id="Layer_1" xmlns="http://www.w3.org/2000/svg" xmlns:xlink="http://www.w3.org/1999/xlink" x="0px" y="0px"
	 viewBox="0 0 512 512" style="enable-background:new 0 0 512 512;" xml:space="preserve">
<style type="text/css">
	.st0{display:none;fill:#141F38;}
	.st1{fill:#FFFFFF;}
</style>
<path class="st0" d="M444.8,9.3H63.1c-27.9,0-50.5,22.6-50.5,50.5v381.7c0,27.9,22.6,50.5,50.5,50.5h381.7
	c27.9,0,50.5-22.6,50.5-50.5V59.8C495.3,31.9,472.7,9.3,444.8,9.3z"/>
<path class="st1" d="M512,64c0-35.3-28.7-64-64-64H64C28.7,0,0,28.7,0,64v384c0,35.3,28.7,64,64,64h384c35.3,0,64-28.7,64-64V64z
	 M486.4,448c0,21.2-17.2,38.4-38.4,38.4H64c-21.2,0-38.4-17.2-38.4-38.4V140.8h460.8V448z M25.6,115.2V64
	c0-21.2,17.2-38.4,38.4-38.4h384c21.2,0,38.4,17.2,38.4,38.4v51.2H25.6z"/>
<circle class="st1" cx="70.4" cy="70.4" r="19.2"/>
<circle class="st1" cx="121.6" cy="70.4" r="19.2"/>
<circle class="st1" cx="172.8" cy="70.4" r="19.2"/>
<path class="st1" d="M96,281.6h38.4c17.7,0,32-14.3,32-32v-38.4c0-17.7-14.3-32-32-32H96c-17.7,0-32,14.3-32,32v38.4
	C64,267.3,78.3,281.6,96,281.6z M89.6,211.2c0-3.5,2.9-6.4,6.4-6.4h38.4c3.5,0,6.4,2.9,6.4,6.4v38.4c0,3.5-2.9,6.4-6.4,6.4H96
	c-3.5,0-6.4-2.9-6.4-6.4V211.2z"/>
<path class="st1" d="M76.8,345.6h76.8c7.1,0,12.8-5.7,12.8-12.8c0-7.1-5.7-12.8-12.8-12.8H76.8c-7.1,0-12.8,5.7-12.8,12.8
	C64,339.9,69.7,345.6,76.8,345.6L76.8,345.6z"/>
<path class="st1" d="M76.8,396.8h76.8c7.1,0,12.8-5.7,12.8-12.8c0-7.1-5.7-12.8-12.8-12.8H76.8c-7.1,0-12.8,5.7-12.8,12.8
	C64,391.1,69.7,396.8,76.8,396.8L76.8,396.8z"/>
<path class="st1" d="M236.8,281.6h38.4c17.7,0,32-14.3,32-32v-38.4c0-17.7-14.3-32-32-32h-38.4c-17.7,0-32,14.3-32,32v38.4
	C204.8,267.3,219.1,281.6,236.8,281.6z M230.4,211.2c0-3.5,2.9-6.4,6.4-6.4h38.4c3.5,0,6.4,2.9,6.4,6.4v38.4c0,3.5-2.9,6.4-6.4,6.4
	h-38.4c-3.5,0-6.4-2.9-6.4-6.4V211.2z"/>
<path class="st1" d="M377.6,281.6H416c17.7,0,32-14.3,32-32v-38.4c0-17.7-14.3-32-32-32h-38.4c-17.7,0-32,14.3-32,32v38.4
	C345.6,267.3,359.9,281.6,377.6,281.6z M371.2,211.2c0-3.5,2.9-6.4,6.4-6.4H416c3.5,0,6.4,2.9,6.4,6.4v38.4c0,3.5-2.9,6.4-6.4,6.4
	h-38.4c-3.5,0-6.4-2.9-6.4-6.4V211.2z"/>
<path class="st1" d="M76.8,448h38.4c7.1,0,12.8-5.7,12.8-12.8c0-7.1-5.7-12.8-12.8-12.8H76.8c-7.1,0-12.8,5.7-12.8,12.8
	C64,442.3,69.7,448,76.8,448L76.8,448z"/>
<path class="st1" d="M217.6,345.6h76.8c7.1,0,12.8-5.7,12.8-12.8c0-7.1-5.7-12.8-12.8-12.8h-76.8c-7.1,0-12.8,5.7-12.8,12.8
	C204.8,339.9,210.5,345.6,217.6,345.6L217.6,345.6z"/>
<path class="st1" d="M217.6,396.8h76.8c7.1,0,12.8-5.7,12.8-12.8c0-7.1-5.7-12.8-12.8-12.8h-76.8c-7.1,0-12.8,5.7-12.8,12.8
	C204.8,391.1,210.5,396.8,217.6,396.8L217.6,396.8z"/>
<path class="st1" d="M217.6,448H256c7.1,0,12.8-5.7,12.8-12.8c0-7.1-5.7-12.8-12.8-12.8h-38.4c-7.1,0-12.8,5.7-12.8,12.8
	C204.8,442.3,210.5,448,217.6,448L217.6,448z"/>
<path class="st1" d="M358.4,345.6h76.8c7.1,0,12.8-5.7,12.8-12.8c0-7.1-5.7-12.8-12.8-12.8h-76.8c-7.1,0-12.8,5.7-12.8,12.8
	C345.6,339.9,351.3,345.6,358.4,345.6z"/>
<path class="st1" d="M358.4,396.8h76.8c7.1,0,12.8-5.7,12.8-12.8c0-7.1-5.7-12.8-12.8-12.8h-76.8c-7.1,0-12.8,5.7-12.8,12.8
	C345.6,391.1,351.3,396.8,358.4,396.8z"/>
<path class="st1" d="M358.4,448h38.4c7.1,0,12.8-5.7,12.8-12.8c0-7.1-5.7-12.8-12.8-12.8h-38.4c-7.1,0-12.8,5.7-12.8,12.8
	C345.6,442.3,351.3,448,358.4,448z"/>
</svg>
